<svg width="35" height="40" viewBox="0 0 35 40" fill="none" xmlns="http://www.w3.org/2000/svg">
<path d="M29.9416 8.0135C29.9149 7.81484 29.7448 7.7046 29.6037 7.69259C29.4636 7.68058 26.7193 7.63801 26.7193 7.63801C26.7193 7.63801 24.4243 5.36324 24.1975 5.13183C23.9708 4.90042 23.5281 4.97028 23.3559 5.02268C23.3537 5.02377 22.9249 5.15912 22.203 5.38725C22.0822 4.98775 21.9046 4.49655 21.6512 4.00317C20.8341 2.41171 19.6374 1.57013 18.1915 1.56794C18.1893 1.56794 18.1883 1.56794 18.1861 1.56794C18.0856 1.56794 17.9861 1.57777 17.8856 1.5865C17.8428 1.5341 17.8 1.4828 17.7551 1.43259C17.1252 0.74492 16.3178 0.409816 15.3499 0.439288C13.4826 0.493865 11.6228 1.8703 10.1149 4.31536C9.05401 6.03563 8.24657 8.19688 8.0177 9.87022C5.87344 10.5481 4.37406 11.0218 4.3409 11.0327C3.25861 11.3798 3.22439 11.4137 3.08322 12.455C2.97841 13.242 0.146484 35.5924 0.146484 35.5924L23.8788 39.7818L34.1649 37.1719C34.1649 37.1719 29.9683 8.21216 29.9416 8.0135ZM21.0148 5.76274C20.4683 5.9352 19.847 6.13168 19.1732 6.34453C19.1593 5.37961 19.047 4.03701 18.6064 2.8767C20.0234 3.15068 20.7207 4.7869 21.0148 5.76274ZM17.9316 6.73749C16.6878 7.13044 15.3307 7.55942 13.9692 7.98949C14.3521 6.49298 15.0783 5.00303 15.9702 4.0261C16.3017 3.66261 16.7659 3.25765 17.3156 3.02624C17.8321 4.12652 17.9444 5.68415 17.9316 6.73749ZM15.3873 1.70766C15.8258 1.69784 16.1948 1.79608 16.5103 2.00783C16.0055 2.27526 15.5178 2.65949 15.0601 3.1605C13.8741 4.45944 12.965 6.47552 12.6025 8.42065C11.4721 8.77758 10.3662 9.12797 9.34811 9.44888C9.99086 6.3871 12.5052 1.7928 15.3873 1.70766Z" fill="#95BF47"/>
<path d="M29.6047 7.69382C29.4646 7.68181 26.7204 7.63924 26.7204 7.63924C26.7204 7.63924 24.4253 5.36447 24.1986 5.13306C24.1141 5.04683 23.9997 5.00208 23.8799 4.98352L23.881 39.7808L34.1659 37.172C34.1659 37.172 29.9694 8.2134 29.9426 8.01473C29.9159 7.81607 29.7448 7.70583 29.6047 7.69382Z" fill="#5E8E3E"/>
<path d="M18.1783 13.0913L16.9837 17.6529C16.9837 17.6529 15.6511 17.034 14.0715 17.1355C11.7551 17.285 11.7305 18.7761 11.754 19.1505C11.8802 21.1906 17.1387 21.6359 17.4339 26.4147C17.666 30.174 15.48 32.7456 12.3305 32.9487C8.54992 33.1921 6.46875 30.9162 6.46875 30.9162L7.26977 27.4385C7.26977 27.4385 9.36484 29.0518 11.0418 28.9438C12.1369 28.8728 12.5283 27.9636 12.4887 27.3207C12.324 24.6595 8.04192 24.8167 7.77135 20.4439C7.54356 16.7644 9.91134 13.0356 15.1356 12.6994C17.1484 12.5674 18.1783 13.0913 18.1783 13.0913Z" fill="white"/>
</svg>
